<?xml version="1.0" encoding="UTF-8"?>
<svg width="1200pt" height="1200pt" version="1.1" viewBox="0 0 1200 1200" xmlns="http://www.w3.org/2000/svg">
 <path d="m1200 600c0 214.36-114.36 412.44-300 519.62-185.64 107.18-414.36 107.18-600 0-185.64-107.18-300-305.26-300-519.62s114.36-412.44 300-519.62c185.64-107.18 414.36-107.18 600 0 185.64 107.18 300 305.26 300 519.62" fill="#fff"/>
 <path d="m336.27 362.37h527.5c17.742 0 33.891 7.2617 45.578 18.953 11.688 11.691 18.953 27.836 18.953 45.578v346.24c0 17.77-7.2617 33.891-18.953 45.578s-27.836 18.953-45.578 18.953l-527.5-0.03125c-17.742 0-33.891-7.2617-45.578-18.953-11.691-11.691-18.953-27.809-18.953-45.578v-346.21c0-17.742 7.2617-33.891 18.953-45.578 11.691-11.691 27.836-18.953 45.578-18.953zm555 442.89-192.88-223.59-48.887 44.898v-0.03125c-0.14844 0.14844-0.29687 0.26562-0.47266 0.41406-16.059 13.254-32.414 19.895-49.031 19.895v-0.03125c-16.473 0-32.648-6.4648-48.5-19.426-0.32422-0.26562-0.67969-0.53125-1.0039-0.82812l-48.887-44.898-192.88 223.59c7.4102 6.375 17.062 10.242 27.512 10.242h527.5c10.48 0 20.102-3.8672 27.543-10.242zm-595.28-19.012 189.34-219.54-61.285-56.293-120.39-110.52c-6.1094 7.3516-9.8008 16.77-9.8008 27.012v346.24c0 4.5469 0.73828 8.9727 2.125 13.105zm26.242-399.32 243.18 223.37h0.03125c11.809 9.625 23.32 14.438 34.539 14.438v-0.058594c11.246 0 22.762-4.8125 34.539-14.406l243.18-223.37c-4.3984-1.5664-9.0938-2.3906-13.992-2.3906h-527.46c-4.9297 0-9.6523 0.85547-14.023 2.4219zm574.08 12.961-120.36 110.52-61.285 56.293 189.34 219.54c1.3594-4.1328 2.0977-8.5625 2.0977-13.137v-346.21c0-10.242-3.6914-19.66-9.8008-27.012z" fill="#2d3b22"/>
</svg>
