<?xml version="1.0" encoding="UTF-8"?>
<svg width="1200pt" height="1200pt" version="1.1" viewBox="0 0 1200 1200" xmlns="http://www.w3.org/2000/svg">
 <path d="m1200 600c0 214.36-114.36 412.44-300 519.62-185.64 107.18-414.36 107.18-600 0-185.64-107.18-300-305.26-300-519.62s114.36-412.44 300-519.62c185.64-107.18 414.36-107.18 600 0 185.64 107.18 300 305.26 300 519.62" fill="#fff"/>
 <path d="m720.91 433.75h60.457c8.3242 0 15.113-6.7891 15.113-15.113v-120.91c0-8.3242-6.7891-15.113-15.113-15.113h-90.688c-91.66 0-166.26 74.598-166.26 166.26v76.781h-105.8c-8.3242 0-15.113 6.7891-15.113 15.113v119.71c0 8.3242 6.7891 15.113 15.113 15.113h95.289v226.71c0 8.3242 6.7891 15.113 15.113 15.113h126.2c8.3242 0 15.113-6.7891 15.113-15.113v-226.71h79.5c6.8789 0 12.93-4.6055 14.672-11.336l31.527-120.91c1.2109-4.5469 0.23438-9.3594-2.6562-13.078-2.8633-3.6914-7.2617-5.9023-11.926-5.9023h-105.8v-45.344c0-25.004 20.34-45.344 45.344-45.344zm-60.457 120.91h101.34l-23.645 90.688h-82.977c-8.3242 0-15.113 6.7891-15.113 15.113v226.71h-95.969v-226.71c0-8.3242-6.7891-15.113-15.113-15.113h-95.289v-89.477h105.8c8.3242 0 15.113-6.7891 15.113-15.113v-91.895c0-74.98 60.988-136.03 136.03-136.03h75.57v90.688h-45.344c-41.652 0-75.57 33.918-75.57 75.57v60.457c0 8.3242 6.7891 15.113 15.113 15.113z" fill="#2d3b22"/>
</svg>
