<svg xmlns="http://www.w3.org/2000/svg" xmlns:xlink="http://www.w3.org/1999/xlink" width="500" zoomAndPan="magnify" viewBox="0 0 375 374.999991" height="500" preserveAspectRatio="xMidYMid meet" version="1.0"><defs><g/><clipPath id="c44de931e2"><path d="M 131.203125 133.933594 L 242.203125 133.933594 L 242.203125 196.183594 L 131.203125 196.183594 Z M 131.203125 133.933594 " clip-rule="nonzero"/></clipPath><clipPath id="056498bbf8"><path d="M 15.367188 14.839844 L 366.238281 14.839844 L 366.238281 360.304688 L 15.367188 360.304688 Z M 15.367188 14.839844 " clip-rule="nonzero"/></clipPath></defs><g clip-path="url(#c44de931e2)"><path fill="#ffffff" d="M 316.328125 133.988281 C 314.859375 133.988281 313.667969 135.179688 313.667969 136.648438 C 313.667969 137.046875 313.761719 137.417969 313.917969 137.757812 L 262.941406 190.699219 L 47.160156 190.699219 C 46.710938 188.496094 44.761719 186.835938 42.425781 186.835938 C 39.757812 186.835938 37.59375 189 37.59375 191.667969 C 37.59375 194.335938 39.757812 196.5 42.425781 196.5 C 44.761719 196.5 46.710938 194.835938 47.160156 192.632812 L 263.761719 192.632812 L 315.308594 139.101562 C 315.621094 139.230469 315.964844 139.304688 316.328125 139.304688 C 317.796875 139.304688 318.984375 138.117188 318.984375 136.648438 C 318.984375 135.175781 317.792969 133.988281 316.328125 133.988281 Z M 42.425781 193.839844 C 41.222656 193.839844 40.25 192.867188 40.25 191.667969 C 40.25 190.464844 41.222656 189.492188 42.425781 189.492188 C 43.625 189.492188 44.597656 190.464844 44.597656 191.667969 C 44.597656 192.867188 43.625 193.839844 42.425781 193.839844 Z M 42.425781 193.839844 " fill-opacity="1" fill-rule="nonzero"/></g><g clip-path="url(#056498bbf8)"><path fill="#ffffff" d="M 20.242188 117.203125 C 20.121094 117.203125 20 117.203125 19.878906 117.203125 C 19.878906 115.199219 19.878906 113.210938 19.878906 111.21875 C 20 111.21875 20.121094 111.21875 20.242188 111.234375 C 20.242188 113.226562 20.242188 115.214844 20.242188 117.203125 Z M 269.207031 59.511719 C 264.027344 58.769531 255.214844 53.011719 250.539062 47.316406 C 256.75 50.976562 263.3125 54.105469 269.207031 59.511719 Z M 63.929688 270.347656 C 69.230469 273.917969 73.910156 278.171875 78.011719 284.050781 C 71.765625 283.0625 69.929688 281.300781 63.929688 270.347656 Z M 101.828125 77.453125 C 114.96875 74.292969 128.199219 75.308594 142.386719 75.796875 C 130.839844 86.992188 115.042969 80.109375 101.828125 77.453125 Z M 179.890625 31.109375 C 166.234375 39.507812 148.140625 44.292969 131.523438 43.5625 C 146.898438 35.921875 163.363281 33.75 179.890625 31.109375 Z M 154.734375 313.671875 C 167.128906 319.578125 180.027344 322.40625 192.421875 328.390625 C 180.085938 332.933594 164.136719 327.191406 154.734375 313.671875 Z M 336.117188 159.585938 C 319.835938 147.082031 323.648438 123.613281 314.519531 106.496094 C 334.839844 115.152344 329.328125 142.296875 336.117188 159.585938 Z M 270.46875 327.328125 C 270.101562 327.160156 269.738281 326.992188 269.375 326.808594 C 270.816406 313.609375 284.199219 306.910156 291.898438 297.464844 C 301.210938 287.800781 306.011719 271.078125 319.289062 266.613281 C 316.492188 294.425781 280.976562 302.597656 270.46875 327.328125 Z M 69.882812 64.128906 C 70.339844 64.359375 70.78125 64.570312 71.234375 64.800781 C 67.164062 88.84375 59.007812 111.324219 44.515625 133.03125 C 40.855469 107.816406 60.769531 86.460938 69.882812 64.128906 Z M 337.910156 290.507812 C 335.933594 269.589844 332.289062 248.75 337.136719 227.695312 C 343.804688 248.246094 354.332031 271.851562 337.910156 290.507812 Z M 94.644531 301.414062 C 118.78125 311.105469 138.648438 325.335938 162.722656 334.085938 C 134.941406 339.371094 111.230469 321.113281 94.644531 301.414062 Z M 87.261719 289.472656 C 100.992188 287.40625 152.820312 314.203125 161.3125 327.707031 C 136.414062 326.097656 118.398438 305.027344 94.933594 298.300781 C 90.847656 296.75 88.25 294.347656 87.261719 289.472656 Z M 42.191406 172.921875 C 38.257812 174.972656 37.800781 175.046875 37.117188 172.039062 C 16.21875 134.125 26.320312 132.820312 18.832031 96 C 11.996094 127.972656 24.816406 156.804688 33.851562 186.410156 C 34.339844 177.722656 32.121094 169.5625 28.582031 160.238281 C 46.808594 180.273438 26.484375 204.03125 30.96875 226.707031 C 25.179688 222.378906 24.054688 216.789062 15.367188 216.167969 C 36.585938 240.183594 53.492188 266.703125 75.839844 290.082031 C 65.902344 290.460938 60.238281 283.214844 50.683594 284.261719 C 101.113281 296.945312 117.445312 350.355469 172.003906 336.378906 C 182.242188 332.523438 192.601562 335.027344 202.976562 337.839844 C 179.296875 343.730469 158.761719 358.359375 133.789062 357.039062 C 139.394531 372.410156 256.265625 329.121094 263.660156 318.621094 C 213.320312 340.875 164.441406 313.714844 118.476562 292.679688 C 108.859375 289.414062 98.757812 286.769531 89.160156 283.792969 C 83.722656 285.859375 81.367188 281.4375 78.34375 278.613281 C 68.652344 267.175781 51.640625 259.167969 48.328125 243.78125 C 41.933594 216.878906 47.875 190.269531 47.28125 163.230469 C 45.261719 151.015625 42.054688 138.851562 50.363281 128.398438 C 63.777344 115.410156 60.132812 89.101562 78.90625 82.875 C 92.5 78.515625 106.066406 84.167969 119.675781 84.878906 C 133.621094 84.789062 149.265625 80.171875 160.949219 73.914062 C 136.355469 69.265625 109.542969 72.878906 84.4375 76.117188 C 99.019531 51.71875 127.953125 45.644531 154.171875 44.566406 C 163.5 43.929688 171.640625 37.183594 181.121094 40.996094 C 207.671875 48.53125 226.765625 72.652344 253.636719 77.605469 C 231.855469 61.488281 210.726562 46.527344 187.4375 33.828125 C 191.097656 28.84375 195.582031 31.730469 200.121094 32.597656 C 228.601562 34.070312 248.425781 52.875 271.726562 66.894531 C 278.867188 67.367188 283.605469 68.066406 286.203125 76.265625 C 284.335938 75.660156 282.984375 75.21875 280.445312 74.382812 C 300.042969 90.941406 290.625 139.5625 305.101562 165.25 C 301.5 144.183594 301.058594 123.460938 303.246094 102.136719 C 322.734375 112.132812 315.335938 144.015625 330.011719 159.175781 C 368.578125 232.054688 276.527344 250.570312 249.71875 303.191406 C 268.675781 293.757812 275.890625 277.304688 292.035156 265.808594 C 304.691406 256.617188 317.449219 247.261719 327.640625 235.441406 C 327.703125 258.304688 303.199219 272.097656 293.570312 291.480469 C 284.640625 304.664062 268.539062 311.847656 265.695312 328.847656 C 264.785156 338.414062 256.417969 348.5625 258.785156 357.601562 C 285.945312 286.207031 310.886719 317.96875 330.90625 243.328125 C 333.414062 267.355469 333.09375 291.480469 335.449219 315.328125 C 334.660156 293.105469 356.898438 275.253906 347.859375 252.894531 C 344.488281 236.1875 336.332031 219.570312 341.738281 202.296875 C 344.472656 192.363281 341.449219 184.160156 338.972656 174.058594 C 351.671875 186.652344 355.546875 201.28125 366.238281 214.921875 C 359.90625 195.113281 346.992188 176.6875 339.003906 157.0625 C 330.921875 140.140625 338.640625 118.328125 321.277344 105.675781 C 316.566406 101.832031 312.269531 96.394531 306.648438 94.070312 C 299.84375 92.398438 301.683594 83.847656 299.496094 78.667969 C 299.265625 76.207031 298.28125 74.503906 295.847656 73.730469 C 298.765625 90.273438 302.394531 104.613281 298.78125 122.277344 C 291.382812 105.917969 295.894531 87.933594 288.222656 70.675781 C 312.207031 72.152344 332.078125 84.136719 353.890625 92.15625 C 332.410156 71.695312 296.304688 70.464844 270.34375 55.199219 C 250.539062 42.105469 229.773438 30.984375 205.605469 29.648438 C 186.480469 28.859375 211.179688 19.792969 216.285156 14.855469 C 198.785156 14.777344 188.015625 28.996094 170.882812 30.210938 C 142.414062 31.867188 118.082031 49 89.933594 50.839844 C 92.746094 51.765625 95.539062 52.675781 98.636719 53.695312 C 88.976562 61.65625 82.371094 75.476562 71.507812 79.246094 C 71.207031 68.171875 81.550781 51.613281 72.269531 43.488281 C 67.863281 74.566406 42.859375 98.367188 39.414062 129.734375 C 31.117188 129.082031 48.253906 156.667969 42.980469 169.398438 C 49.011719 175.277344 43.558594 185.800781 43.773438 193.398438 C 39.214844 209.710938 46.992188 226.34375 44.546875 242.21875 C 23.234375 226.011719 37.710938 194.550781 42.191406 172.921875 " fill-opacity="1" fill-rule="nonzero"/></g><g fill="#ffffff" fill-opacity="1"><g transform="translate(141.941875, 175.954513)"><g><path d="M 35.234375 3.65625 L 33.6875 0.1875 L 2.828125 -66.359375 L 1.828125 -68.453125 L 8.671875 -68.453125 L 9.125 -67.453125 L 35.6875 -8.21875 L 47.09375 -33.78125 L 32.671875 -66.265625 L 31.671875 -68.453125 L 38.703125 -68.453125 L 39.15625 -67.453125 L 50.84375 -40.890625 L 62.984375 -67.453125 L 63.4375 -68.453125 L 69.734375 -68.453125 L 68.734375 -66.265625 L 54.125 -33.859375 L 65.8125 -7.84375 L 93.015625 -67.546875 L 93.375 -68.453125 L 99.3125 -68.453125 L 98.40625 -66.359375 L 67.09375 0.1875 L 65.546875 3.5625 L 63.984375 0.1875 L 50.390625 -29.84375 L 36.78125 0.1875 Z M 35.234375 3.65625 "/></g></g></g><g fill="#ffffff" fill-opacity="1"><g transform="translate(163.348099, 275.604432)"><g><path d="M 33.875 -50.5625 C 32.613281 -52.632812 30.867188 -54.269531 28.640625 -55.46875 C 26.398438 -56.613281 23.863281 -57.1875 21.03125 -57.1875 C 18.351562 -57.1875 16.0625 -56.503906 14.15625 -55.140625 C 12.519531 -53.828125 11.703125 -52 11.703125 -49.65625 L 11.703125 -49.25 C 11.703125 -47.882812 12.109375 -46.550781 12.921875 -45.25 C 13.910156 -43.9375 15.410156 -42.648438 17.421875 -41.390625 C 18.410156 -40.796875 19.445312 -40.222656 20.53125 -39.671875 C 21.082031 -39.398438 21.613281 -39.128906 22.125 -38.859375 C 22.644531 -38.585938 23.175781 -38.34375 23.71875 -38.125 C 24.539062 -37.738281 25.347656 -37.34375 26.140625 -36.9375 C 26.929688 -36.53125 27.734375 -36.117188 28.546875 -35.703125 C 29.367188 -35.296875 30.160156 -34.875 30.921875 -34.4375 C 32.179688 -33.789062 33.300781 -33.109375 34.28125 -32.390625 C 35.257812 -31.742188 36.1875 -31.035156 37.0625 -30.265625 C 38.863281 -28.742188 40.335938 -26.863281 41.484375 -24.625 C 42.628906 -22.332031 43.203125 -19.851562 43.203125 -17.1875 L 43.203125 -16.359375 C 43.203125 -11.015625 41.265625 -6.734375 37.390625 -3.515625 C 33.460938 -0.410156 28.28125 1.140625 21.84375 1.140625 C 13.664062 1.140625 7.554688 -1.882812 3.515625 -7.9375 L 3.265625 -8.265625 L 3.265625 -19.71875 L 5.96875 -13.75 C 7.28125 -10.851562 9.21875 -8.503906 11.78125 -6.703125 C 14.5625 -4.960938 18.160156 -4.09375 22.578125 -4.09375 C 26.941406 -4.09375 30.675781 -5.238281 33.78125 -7.53125 C 36.457031 -9.707031 37.796875 -12.675781 37.796875 -16.4375 L 37.796875 -16.9375 C 37.796875 -19.28125 37.171875 -21.40625 35.921875 -23.3125 C 34.992188 -24.726562 33.847656 -25.957031 32.484375 -27 C 31.878906 -27.4375 31.25 -27.84375 30.59375 -28.21875 L 22.5 -32.5625 C 20.59375 -33.539062 18.738281 -34.492188 16.9375 -35.421875 C 16.0625 -35.859375 15.21875 -36.296875 14.40625 -36.734375 C 12 -38.148438 10.035156 -39.921875 8.515625 -42.046875 C 6.929688 -44.234375 6.140625 -46.632812 6.140625 -49.25 L 6.140625 -49.828125 C 6.140625 -53.910156 7.53125 -57.046875 10.3125 -59.234375 C 13.195312 -61.359375 16.929688 -62.421875 21.515625 -62.421875 C 23.097656 -62.421875 24.597656 -62.296875 26.015625 -62.046875 C 27.429688 -61.804688 28.78125 -61.425781 30.0625 -60.90625 C 31.34375 -60.382812 32.53125 -59.742188 33.625 -58.984375 C 34.601562 -58.222656 35.476562 -57.320312 36.25 -56.28125 L 36.5625 -55.953125 L 36.5625 -45.65625 Z M 33.875 -50.5625 "/></g></g></g></svg>