<?xml version="1.0" encoding="UTF-8"?>
<svg width="1200pt" height="1200pt" version="1.1" viewBox="0 0 1200 1200" xmlns="http://www.w3.org/2000/svg">
 <path d="m1200 600c0 214.36-114.36 412.44-300 519.62-185.64 107.18-414.36 107.18-600 0-185.64-107.18-300-305.26-300-519.62s114.36-412.44 300-519.62c185.64-107.18 414.36-107.18 600 0 185.64 107.18 300 305.26 300 519.62" fill="#fff"/>
 <path d="m787.6 303.18h-375.2c-60.223 0-109.22 49.004-109.22 109.22v375.2c0 60.223 49.004 109.22 109.22 109.22h375.2c60.223 0 109.22-49.004 109.22-109.22v-375.2c0-60.223-49.004-109.22-109.22-109.22zm79.707 484.43c0 43.957-35.75 79.707-79.707 79.707h-375.2c-43.957 0-79.707-35.75-79.707-79.707v-375.2c0-43.957 35.75-79.707 79.707-79.707h375.2c43.957 0 79.707 35.75 79.707 79.707z" fill="#2d3b22"/>
 <path d="m600 440.56c-87.914 0.03125-159.41 71.527-159.41 159.44 0 87.914 71.527 159.41 159.41 159.41 87.914 0 159.44-71.527 159.44-159.41-0.03125-87.914-71.527-159.41-159.44-159.44zm0 289.32c-71.617 0-129.89-58.273-129.89-129.89 0-71.621 58.273-129.89 129.89-129.91 71.617 0.03125 129.89 58.301 129.89 129.91 0 71.613-58.273 129.89-129.89 129.89z" fill="#2d3b22"/>
 <path d="m787.01 362.54c-38.109 0-69.137 30.996-69.137 69.137 0 38.109 30.996 69.137 69.137 69.137 38.109 0 69.105-30.996 69.105-69.137 0.03125-38.109-30.996-69.137-69.105-69.137zm0 108.73c-21.844 0-39.617-17.77-39.617-39.617 0-21.844 17.77-39.617 39.617-39.617 21.844 0 39.586 17.77 39.586 39.617 0.03125 21.875-17.742 39.617-39.586 39.617z" fill="#2d3b22"/>
</svg>
